{"accessors":[{"bufferView":0,"componentType":5123,"count":43920,"max":[7530],"min":[0],"type":"SCALAR"},{"bufferView":1,"componentType":5126,"count":7531,"max":[70.88259887695312,1248.7244873046875,510.6647033691406],"min":[-662.2691040039062,-32.570098876953125,-75.8857192993164],"type":"VEC3"},{"bufferView":2,"componentType":5126,"count":7531,"max":[0.9994886517524719,0.9975599646568298,0.9999232292175293],"min":[-0.9992253184318542,-0.9977425932884216,-0.9999711513519287],"type":"VEC3"},{"bufferView":3,"componentType":5126,"count":7531,"max":[0.6170300841331482,1.0],"min":[0.0,0.0],"type":"VEC2"},{"bufferView":4,"componentType":5123,"count":1440,"max":[327],"min":[0],"type":"SCALAR"},{"bufferView":5,"componentType":5126,"count":328,"max":[25.653488159179688,571.177734375,326.7427978515625],"min":[-386.596435546875,84.41769409179688,-64.69579315185547],"type":"VEC3"},{"bufferView":6,"componentType":5126,"count":328,"max":[0.9973409175872803,0.3990132808685303,0.956363320350647],"min":[-0.9076351523399353,-0.786394476890564,-0.9999332427978516],"type":"VEC3"},{"bufferView":7,"componentType":5126,"count":328,"max":[1.009225845336914,0.9924715757369995],"min":[-0.12419256567955017,0.06484115123748779],"type":"VEC2"},{"bufferView":8,"componentType":5123,"count":13056,"max":[2770],"min":[0],"type":"SCALAR"},{"bufferView":9,"componentType":5126,"count":2771,"max":[83.11650085449219,54.829654693603516,92.88593292236328],"min":[-91.12590789794922,-52.68824768066406,-85.20716094970703],"type":"VEC3"},{"bufferView":10,"componentType":5126,"count":2771,"max":[0.9999001622200012,0.9986037611961365,0.999994158744812],"min":[-0.9979354739189148,-0.9762193560600281,-0.997399628162384],"type":"VEC3"},{"bufferView":11,"componentType":5126,"count":2771,"max":[0.9951000213623047,-0.0048999786376953125],"min":[0.004900000058114529,-0.9802000522613525],"type":"VEC2"}],"asset":{"generator":"Verge3D for Blender","version":"2.0"},"bufferViews":[{"buffer":0,"byteLength":87840,"byteOffset":0,"target":34963},{"buffer":0,"byteLength":90372,"byteOffset":87840,"target":34962},{"buffer":0,"byteLength":90372,"byteOffset":178212,"target":34962},{"buffer":0,"byteLength":60248,"byteOffset":268584,"target":34962},{"buffer":0,"byteLength":2880,"byteOffset":328832,"target":34963},{"buffer":0,"byteLength":3936,"byteOffset":331712,"target":34962},{"buffer":0,"byteLength":3936,"byteOffset":335648,"target":34962},{"buffer":0,"byteLength":2624,"byteOffset":339584,"target":34962},{"buffer":0,"byteLength":26112,"byteOffset":342208,"target":34963},{"buffer":0,"byteLength":33252,"byteOffset":368320,"target":34962},{"buffer":0,"byteLength":33252,"byteOffset":401572,"target":34962},{"buffer":0,"byteLength":22168,"byteOffset":434824,"target":34962}],"buffers":[{"byteLength":456992,"uri":"sprite model.bin"}],"cameras":[{"extensions":{"S8S_v3d_camera":{"controls":"ORBIT","enablePan":true,"moveSpeed":1.0,"orbitMaxDistance":100.0,"orbitMaxPolarAngle":3.1415927410125732,"orbitMaxZoom":100.0,"orbitMinDistance":0.0,"orbitMinPolarAngle":0.0,"orbitMinZoom":0.009999999776482582,"orbitTarget":[0.0,0.0,-0.0],"rotateSpeed":1.0,"viewportFitInitialAspect":1.7777777777777777,"viewportFitType":"AUTO"}},"name":"摄像机","perspective":{"aspectRatio":1.7777777777777777,"yfov":0.281028729512983,"zfar":1000.0,"znear":0.10000000149011612},"type":"perspective"}],"extensions":{"S8S_v3d_lights":{"lights":[{"color":[1.0,0.9837890267372131,0.649111270904541],"intensity":2.1500000953674316,"name":"日光.001","profile":"blender","shadow":{"bias":-0.0018,"cameraFar":100,"cameraFov":0,"cameraNear":0.1,"csm":{"maxDistance":200.0},"enabled":true,"expBias":2.5,"mapSize":1024,"radius":1.0,"slopeScaledBias":2.5},"type":"directional"},{"angle":0.43059754371643066,"color":[1.0,1.0,1.0],"decay":2,"distance":3.162277695509587,"intensity":10.0,"name":"聚光","penumbra":0.15000000596046448,"profile":"blender","shadow":{"bias":-0.0018,"cameraFar":3.162277695509587,"cameraFov":0.8611950874328613,"cameraNear":0.05000000074505806,"enabled":true,"expBias":2.5,"mapSize":512,"radius":1.0,"slopeScaledBias":2.5},"type":"spot"}]}},"extensionsUsed":["S8S_v3d_texture","S8S_v3d_materials","S8S_v3d_camera","S8S_v3d_lights","S8S_v3d_mesh","S8S_v3d_node","S8S_v3d_scene"],"images":[{"uri":"5738985d0356622d59df4dae14313cb.png"}],"materials":[{"extensions":{"S8S_v3d_materials":{"gtaoVisible":true,"materialIndex":0,"nodeGraph":{"edges":[{"fromNode":0,"fromOutput":0,"toInput":0,"toNode":1},{"fromNode":1,"fromOutput":0,"toInput":1,"toNode":4},{"fromNode":2,"fromOutput":0,"toInput":2,"toNode":4},{"fromNode":4,"fromOutput":0,"toInput":0,"toNode":3},{"fromNode":0,"fromOutput":1,"toInput":21,"toNode":1}],"nodes":[{"inputs":[[0.0,0.0,0.0]],"is_active_output":false,"name":"图像纹理","outputs":[[0.0,0.0,0.0,0.0],0.0],"projection":"FLAT","projectionBlend":0.0,"type":"TEX_IMAGE_NONE_BL"},{"inputs":[[0.800000011920929,0.800000011920929,0.800000011920929,1.0],0.0,[1.0,0.20000000298023224,0.10000000149011612],[0.800000011920929,0.800000011920929,0.800000011920929,1.0],1.0099999904632568,0.0,0.0,0.0,0.0,0.0,0.0,0.0,0.0,0.0,0.0,0.029999999329447746,1.4500000476837158,0.0,0.0,[0.0,0.0,0.0,1.0],1.0,1.0,[0.0,0.0,0.0],[0.0,0.0,0.0],[0.0,0.0,0.0]],"is_active_output":false,"name":"Principled BSDF","outputs":[[0,0,0,0]],"type":"BSDF_PRINCIPLED_BL"},{"inputs":[[0.09530749171972275,0.6795427799224854,0.07036010175943375,1.0],0.0,1.4500000476837158,[0.0,0.0,0.0]],"is_active_output":false,"name":"玻璃 BSDF","outputs":[[0,0,0,0]],"type":"BSDF_GLASS_BL"},{"inputs":[[0,0,0,0],[0,0,0,0],[0.0,0.0,0.0],0.0],"is_active_output":true,"name":"Material Output","outputs":[],"type":"OUTPUT_MATERIAL_BL"},{"inputs":[0.5,[0,0,0,0],[0,0,0,0]],"is_active_output":false,"name":"混合着色器","outputs":[[0,0,0,0]],"type":"MIX_SHADER_BL"}]},"useCastShadows":true}},"name":"材质"},{"extensions":{"S8S_v3d_materials":{"gtaoVisible":true,"materialIndex":0,"nodeGraph":{"edges":[{"fromNode":1,"fromOutput":0,"toInput":0,"toNode":0}],"nodes":[{"inputs":[[0,0,0,0],[0,0,0,0],[0.0,0.0,0.0],0.0],"is_active_output":true,"name":"Material Output","outputs":[],"type":"OUTPUT_MATERIAL_BL"},{"inputs":[[0.0388273149728775,0.9153584241867065,0.06045163795351982,1.0],0.0,1.4500000476837158,[0.0,0.0,0.0]],"is_active_output":false,"name":"玻璃 BSDF","outputs":[[0,0,0,0]],"type":"BSDF_GLASS_BL"}]},"useCastShadows":true}},"name":"材质.002"},{"extensions":{"S8S_v3d_materials":{"gtaoVisible":true,"materialIndex":0,"nodeGraph":{"edges":[{"fromNode":0,"fromOutput":0,"toInput":0,"toNode":1}],"nodes":[{"inputs":[[0.006512091960757971,0.14995980262756348,0.005605391692370176,1.0],0.0,[1.0,0.20000000298023224,0.10000000149011612],[0.800000011920929,0.800000011920929,0.800000011920929,1.0],1.399999976158142,0.0,1.0,0.5,0.0,0.2818181812763214,0.0,0.0,0.0,0.44090908765792847,0.0,0.029999999329447746,1.4500000476837158,0.0,0.0,[0.0,0.0,0.0,1.0],1.0,1.0,[0.0,0.0,0.0],[0.0,0.0,0.0],[0.0,0.0,0.0]],"is_active_output":false,"name":"Principled BSDF","outputs":[[0,0,0,0]],"type":"BSDF_PRINCIPLED_BL"},{"inputs":[[0,0,0,0],[0,0,0,0],[0.0,0.0,0.0],0.0],"is_active_output":true,"name":"Material Output","outputs":[],"type":"OUTPUT_MATERIAL_BL"}]},"useCastShadows":true}},"name":"材质.003"},{"alphaMode":"BLEND","doubleSided":true,"extensions":{"S8S_v3d_materials":{"depthWrite":false,"gtaoVisible":false,"materialIndex":0,"nodeGraph":{"edges":[{"fromNode":1,"fromOutput":0,"toInput":0,"toNode":0}],"nodes":[{"inputs":[[0,0,0,0],[0,0,0,0],[0.0,0.0,0.0],0.0],"is_active_output":true,"name":"Material Output","outputs":[],"type":"OUTPUT_MATERIAL_BL"},{"inputs":[[0.06835173070430756,0.7165853381156921,0.08054997771978378,1.0],0.0,[1.0,0.20000000298023224,0.10000000149011612],[0.800000011920929,0.800000011920929,0.800000011920929,1.0],1.399999976158142,0.0,0.0,0.5409091114997864,0.0,0.0,0.0,0.0,0.0,0.5,0.0,0.029999999329447746,1.4500000476837158,1.0,0.0,[0.0,0.0,0.0,1.0],1.0,1.0,[0.0,0.0,0.0],[0.0,0.0,0.0],[0.0,0.0,0.0]],"is_active_output":false,"name":"Principled BSDF","outputs":[[0,0,0,0]],"type":"BSDF_PRINCIPLED_BL"},{"inputs":[[0.0,0.0,0.0]],"is_active_output":false,"name":"图像纹理","outputs":[[0.0,0.0,0.0,0.0],0.0],"projection":"FLAT","projectionBlend":0.0,"type":"TEX_IMAGE_NONE_BL"}]},"renderSide":"DOUBLE","useCastShadows":true}},"name":"材质.004"},{"alphaMode":"BLEND","doubleSided":true,"extensions":{"S8S_v3d_materials":{"depthWrite":false,"gtaoVisible":false,"materialIndex":0,"nodeGraph":{"edges":[{"fromNode":1,"fromOutput":0,"toInput":0,"toNode":0},{"fromNode":2,"fromOutput":0,"toInput":0,"toNode":1},{"fromNode":2,"fromOutput":1,"toInput":21,"toNode":1}],"nodes":[{"inputs":[[0,0,0,0],[0,0,0,0],[0.0,0.0,0.0],0.0],"is_active_output":true,"name":"Material Output","outputs":[],"type":"OUTPUT_MATERIAL_BL"},{"inputs":[[0.06835173070430756,0.7165853381156921,0.08054997771978378,1.0],0.0,[1.0,0.20000000298023224,0.10000000149011612],[0.800000011920929,0.800000011920929,0.800000011920929,1.0],1.399999976158142,0.0,0.0,0.5,0.0,0.0,0.0,0.0,0.0,0.5,0.0,0.029999999329447746,1.4500000476837158,1.0,0.0,[0.0,0.0,0.0,1.0],1.0,1.0,[0.0,0.0,0.0],[0.0,0.0,0.0],[0.0,0.0,0.0]],"is_active_output":false,"name":"Principled BSDF","outputs":[[0,0,0,0]],"type":"BSDF_PRINCIPLED_BL"},{"alphaMode":"STRAIGHT","inputs":[[0.0,0.0,0.0]],"is_active_output":false,"name":"图像纹理","outputs":[[0.0,0.0,0.0,0.0],0.0],"projection":"FLAT","projectionBlend":0.0,"texture":0,"type":"TEX_IMAGE_BL"}]},"renderSide":"DOUBLE","useCastShadows":true}},"name":"材质.007"},{"extensions":{"S8S_v3d_materials":{"dithering":true,"gtaoVisible":true,"materialIndex":0,"nodeGraph":{"edges":[{"fromNode":0,"fromOutput":0,"toInput":0,"toNode":1}],"nodes":[{"inputs":[[0.05000000074505806,0.05000000074505806,0.05000000074505806,1.0],1.0],"is_active_output":false,"name":"背景","outputs":[[0,0,0,0]],"type":"BACKGROUND_BL"},{"inputs":[[0,0,0,0],[0,0,0,0]],"is_active_output":true,"name":"世界输出","outputs":[],"type":"OUTPUT_WORLD_BL"}]},"useCastShadows":true}},"name":"Verge3D_Environment_世界"}],"meshes":[{"extensions":{"S8S_v3d_mesh":{"colorLayers":{},"uvLayers":{"UVMap":"TEXCOORD_0"}}},"name":"Obj3d66_7794032_4_94","primitives":[{"attributes":{"NORMAL":2,"POSITION":1,"TEXCOORD_0":3},"indices":0,"material":3,"mode":4},{"attributes":{"NORMAL":6,"POSITION":5,"TEXCOORD_0":7},"indices":4,"material":4,"mode":4}]},{"extensions":{"S8S_v3d_mesh":{"colorLayers":{},"uvLayers":{"UVMap":"TEXCOORD_0"}}},"name":"Obj3d66_7794032_4_94.001","primitives":[{"attributes":{"NORMAL":10,"POSITION":9,"TEXCOORD_0":11},"indices":8,"material":2,"mode":4}]}],"nodes":[{"extensions":{"S8S_v3d_node":{"frustumCulling":true,"groupNames":["Collection"],"hidden":false,"hidpiCompositing":false,"objectColor":[1.0,1.0,1.0,1.0],"objectIndex":0,"renderOrder":0,"useShadows":true}},"mesh":1,"name":"Obj3d66_7794032_4_94.001","rotation":[0.01962246373295784,-0.12201642990112305,0.9734145998954773,0.19284935295581818],"scale":[0.0010000000474974513,0.0010000000474974513,0.0010000000474974513],"translation":[-0.0006982516497373581,0.6857836842536926,0.00304582342505455]},{"extensions":{"S8S_v3d_lights":{"light":1},"S8S_v3d_node":{"frustumCulling":true,"groupNames":["Collection"],"hidden":false,"hidpiCompositing":false,"objectColor":[1.0,1.0,1.0,1.0],"objectIndex":0,"renderOrder":0}},"name":"聚光","rotation":[-0.6552377343177795,0.26582595705986023,-0.26582595705986023,0.6552377939224243],"scale":[1.0,0.9999999403953552,0.9999998807907104],"translation":[5.338462829589844,6.072667121887207,0.0]},{"extensions":{"S8S_v3d_node":{"frustumCulling":true,"groupNames":["Collection"],"hidden":false,"hidpiCompositing":false,"objectColor":[1.0,1.0,1.0,1.0],"objectIndex":0,"renderOrder":0,"useShadows":true}},"mesh":0,"name":"Obj3d66_7794032_4_94","rotation":[0.01962246373295784,-0.12201642990112305,0.9734145998954773,0.19284935295581818],"scale":[0.0010000000474974513,0.0010000000474974513,0.0010000000474974513],"translation":[-0.0006982516497373581,0.6857836842536926,0.00304582342505455]},{"extensions":{"S8S_v3d_lights":{"light":0},"S8S_v3d_node":{"frustumCulling":true,"groupNames":["Collection"],"hidden":false,"hidpiCompositing":false,"objectColor":[1.0,1.0,1.0,1.0],"objectIndex":0,"renderOrder":0}},"name":"日光","rotation":[-0.7071067690849304,0.0,0.0,0.7071067690849304],"scale":[1.0,0.9999999403953552,0.9999999403953552],"translation":[0.0,12.370094299316406,-4.357148170471191]},{"camera":0,"extensions":{"S8S_v3d_node":{"frustumCulling":true,"groupNames":["Collection"],"hidden":false,"hidpiCompositing":false,"objectColor":[1.0,1.0,1.0,1.0],"objectIndex":0,"renderOrder":0}},"name":"摄像机","rotation":[-0.31345245242118835,-0.1838788241147995,0.00829237885773182,0.9315940141677856],"scale":[0.9999998807907104,0.9999998807907104,0.9999998807907104],"translation":[-1.7413982152938843,6.145129680633545,4.469278335571289]}],"samplers":[{}],"scene":0,"scenes":[{"extensions":{"S8S_v3d_scene":{"aaMethod":"AUTO","iblEnvironmentMode":"PMREM","physicallyCorrectLights":true,"pmremMaxTileSize":512,"shadowMap":{"esmDistanceScale":1.0,"renderReverseSided":false,"renderSingleSided":true,"type":"PCFPOISSON"},"toneMapping":{"type":"filmicBlender"},"worldMaterial":5}},"extras":{"animFrameRate":24,"coordSystem":"Z_UP_RIGHT"},"name":"Scene","nodes":[2,0,4,3,1]}],"textures":[{"extensions":{"S8S_v3d_texture":{"colorSpace":"srgb"}},"name":"5738985d0356622d59df4dae14313cb.png","sampler":0,"source":0}]}
