{"asset":{"version":"2.0","generator":"babylon.js glTF exporter for 3dsmax 2022 v20221031.2"},"scene":0,"scenes":[{"nodes":[0,1,2,3,4,5,6,7,8,9,10,11,12]}],"nodes":[{"mesh":0,"translation":[-8.486496E-08,0.0,0.0],"rotation":[0.499317,-0.500682056,0.5006821,0.499316931],"scale":[0.384123981,0.403901666,0.403901666],"name":"Line001"},{"translation":[2.55245585E-08,-0.4030276,-0.58393383],"rotation":[0.49999997,-0.50000006,0.5000001,0.49999997],"name":"Camera001.Target"},{"translation":[-0.7190035,0.0,-1.82641923],"name":"Camera002.Target"},{"translation":[8.073735,-5.03963375,12.045063],"rotation":[0.0525656678,-0.81362915,0.492306322,0.304760456],"scale":[1.00000048,1.00000024,1.0],"name":"PhysCamera001.Target"},{"translation":[-14.3352776,14.5624113,-13.2008228],"rotation":[-0.707106769,0.0,0.0,0.707106769],"name":"Omni001"},{"translation":[19.4031487,14.5624113,-4.944563],"rotation":[-0.707106769,0.0,0.0,0.707106769],"name":"Omni002"},{"translation":[-4.440106,14.5624113,17.4508018],"rotation":[-0.707106769,0.0,0.0,0.707106769],"name":"Omni003"},{"translation":[3.727082,-8.189907,-18.3223114],"rotation":[-0.615082562,0.348817229,0.348817229,0.615082562],"name":"Omni004"},{"translation":[13.9842157,-8.189907,14.2712889],"rotation":[-0.615082562,0.348817229,0.348817229,0.615082562],"name":"Omni005"},{"translation":[-18.0622635,-8.189907,6.315526],"rotation":[-0.615082562,0.348817229,0.348817229,0.615082562],"name":"Omni006"},{"camera":0,"translation":[-1.71661372E-06,7.57935524,38.4227753],"rotation":[-0.100755841,-2.22176251E-08,-2.2500064E-09,0.9949112],"name":"Camera001"},{"camera":1,"translation":[22.20079,5.30871439,-37.0873375],"rotation":[0.0178325027,-0.956871033,-0.0601550341,-0.283656955],"name":"Camera002"},{"camera":2,"translation":[-36.2907677,53.6065331,-76.43683],"rotation":[-0.0608594865,-0.938526,-0.25716275,0.222109064],"scale":[1.00000024,1.00000024,1.0],"name":"PhysCamera001"}],"cameras":[{"perspective":{"yfov":0.6024157,"zfar":10000.0,"znear":0.1},"type":"perspective","name":"Camera001"},{"perspective":{"yfov":0.6024157,"zfar":10000.0,"znear":0.1},"type":"perspective","name":"Camera002"},{"perspective":{"yfov":0.6024127,"zfar":10000.0,"znear":0.1},"type":"perspective","name":"PhysCamera001"}],"meshes":[{"primitives":[{"attributes":{"POSITION":1,"NORMAL":2,"TEXCOORD_0":3},"indices":0,"mode":3,"material":0}],"name":"Line001"}],"accessors":[{"bufferView":0,"componentType":5123,"count":13056,"type":"SCALAR","name":"accessorIndices"},{"bufferView":1,"componentType":5126,"count":2311,"max":[2.76955986,2.76955962,4.9930954],"min":[-2.76955986,-2.76956058,-4.541114],"type":"VEC3","name":"accessorPositions"},{"bufferView":1,"byteOffset":27732,"componentType":5126,"count":2311,"type":"VEC3","name":"accessorNormals"},{"bufferView":2,"componentType":5126,"count":2311,"type":"VEC2","name":"accessorUVs"},{"bufferView":3,"componentType":5126,"count":101,"max":[3.33333325],"min":[0.0],"type":"SCALAR","name":"accessorAnimationInput"},{"bufferView":4,"componentType":5126,"count":101,"type":"VEC4","name":"accessorAnimationRotations"}],"bufferViews":[{"buffer":0,"byteLength":26112,"name":"bufferViewScalar"},{"buffer":0,"byteOffset":26112,"byteLength":55464,"byteStride":12,"name":"bufferViewFloatVec3"},{"buffer":0,"byteOffset":81576,"byteLength":18488,"byteStride":8,"name":"bufferViewFloatVec2"},{"buffer":0,"byteOffset":100064,"byteLength":404,"name":"bufferViewAnimationFloatScalar"},{"buffer":0,"byteOffset":100468,"byteLength":1616,"name":"bufferViewAnimationFloatVec4"}],"buffers":[{"uri":"Cocacola line.bin","byteLength":102084}],"materials":[{"pbrMetallicRoughness":{"baseColorFactor":[0.3372549,0.3372549,0.3372549,1.0],"metallicFactor":0.0,"roughnessFactor":0.450053632},"name":"Material #26"}],"animations":[{"channels":[{"sampler":0,"target":{"node":0,"path":"rotation"}}],"samplers":[{"input":4,"output":5}],"name":"All Animations"}]}