{"asset":{"version":"2.0","generator":"babylon.js glTF exporter for 3dsmax 2022 v20221031.2"},"scene":0,"scenes":[{"nodes":[0,1,3,8,9,10,11,12]}],"nodes":[{"translation":[-2.4592154,0.799217641,4.55366039],"name":"Camera.target"},{"children":[2],"translation":[-0.0004950164,-0.0449072272,0.009833261],"rotation":[0.0,0.135715574,0.0,0.9907479],"scale":[2.97369981,2.9737,2.97369981],"name":"Lathe"},{"mesh":0,"name":"Lathe1"},{"children":[4],"translation":[-5.49456927E-05,-3.26103,0.009833261],"scale":[2.9737,2.9737,2.9737],"name":"cap"},{"children":[5],"translation":[0.0,2.31134319,0.0],"name":"Cap"},{"children":[6,7],"mesh":1,"name":"Cap1"},{"mesh":2,"name":"TooBig0"},{"mesh":3,"name":"TooBig1"},{"translation":[-1.87260187,-1.04936993,-0.0423460044],"rotation":[-0.707106769,0.0,0.0,0.707106769],"name":"Omni001"},{"translation":[1.61341834,-1.062329,-0.08865626],"rotation":[-0.707106769,0.0,0.0,0.707106769],"name":"Omni002"},{"translation":[-6.317379E-08,1.6004591,1.44524789],"rotation":[0.0,-0.7071069,5.96046448E-08,0.7071067],"name":"Omni003"},{"translation":[5.35308367E-08,1.63933671,-1.22464275],"rotation":[0.0,-0.7071069,5.96046448E-08,0.7071067],"name":"Omni004"},{"camera":0,"translation":[-2.50790119,0.779796064,4.802193],"rotation":[0.0380806923,-0.09649974,0.00369473919,0.994597435],"scale":[1.0,1.0,0.99999994],"name":"Camera"}],"cameras":[{"perspective":{"yfov":0.9165187,"zfar":10000.0,"znear":0.1},"type":"perspective","name":"Camera"}],"meshes":[{"primitives":[{"attributes":{"POSITION":1,"NORMAL":2,"TEXCOORD_0":3},"indices":0,"material":0},{"attributes":{"POSITION":5,"NORMAL":6,"TEXCOORD_0":7},"indices":4,"material":1}],"name":"Lathe1"},{"primitives":[{"attributes":{"POSITION":9,"NORMAL":10,"TEXCOORD_0":11},"indices":8,"material":2}],"name":"Cap1"},{"primitives":[{"attributes":{"POSITION":13,"NORMAL":14,"TEXCOORD_0":15},"indices":12,"material":2}],"name":"TooBig0"},{"primitives":[{"attributes":{"POSITION":17,"NORMAL":18,"TEXCOORD_0":19},"indices":16,"material":2}],"name":"TooBig1"}],"accessors":[{"bufferView":0,"componentType":5123,"count":14550,"type":"SCALAR","name":"accessorIndices"},{"bufferView":1,"componentType":5126,"count":2600,"max":[0.3247219,1.19250846,0.331145585],"min":[-0.335699767,-1.04045975,-0.335699767],"type":"VEC3","name":"accessorPositions"},{"bufferView":1,"byteOffset":31200,"componentType":5126,"count":2600,"type":"VEC3","name":"accessorNormals"},{"bufferView":2,"componentType":5126,"count":2600,"type":"VEC2","name":"accessorUVs"},{"bufferView":0,"byteOffset":29100,"componentType":5123,"count":3306,"type":"SCALAR","name":"accessorIndices"},{"bufferView":1,"byteOffset":62400,"componentType":5126,"count":658,"max":[0.341773421,-0.350690037,0.341773421],"min":[-0.341773421,-0.872647047,-0.341773421],"type":"VEC3","name":"accessorPositions"},{"bufferView":1,"byteOffset":70296,"componentType":5126,"count":658,"type":"VEC3","name":"accessorNormals"},{"bufferView":2,"byteOffset":20800,"componentType":5126,"count":658,"type":"VEC2","name":"accessorUVs"},{"bufferView":0,"byteOffset":35712,"componentType":5123,"count":195000,"type":"SCALAR","name":"accessorIndices"},{"bufferView":1,"byteOffset":78192,"componentType":5126,"count":34216,"max":[0.103804722,0.0,0.0953718349],"min":[-0.101773292,-0.0550121441,-0.0977688],"type":"VEC3","name":"accessorPositions"},{"bufferView":1,"byteOffset":488784,"componentType":5126,"count":34216,"type":"VEC3","name":"accessorNormals"},{"bufferView":2,"byteOffset":26064,"componentType":5126,"count":34216,"type":"VEC2","name":"accessorUVs"},{"bufferView":0,"byteOffset":425712,"componentType":5123,"count":195000,"type":"SCALAR","name":"accessorIndices"},{"bufferView":1,"byteOffset":899376,"componentType":5126,"count":34442,"max":[0.104330949,0.0,0.0977688],"min":[-0.104330957,-0.0550481863,-0.0977688],"type":"VEC3","name":"accessorPositions"},{"bufferView":1,"byteOffset":1312680,"componentType":5126,"count":34442,"type":"VEC3","name":"accessorNormals"},{"bufferView":2,"byteOffset":299792,"componentType":5126,"count":34442,"type":"VEC2","name":"accessorUVs"},{"bufferView":0,"byteOffset":815712,"componentType":5123,"count":10896,"type":"SCALAR","name":"accessorIndices"},{"bufferView":1,"byteOffset":1725984,"componentType":5126,"count":2057,"max":[0.0612247251,-0.00281009963,-0.0062971185],"min":[-0.0612247363,-0.00286881719,-0.06105596],"type":"VEC3","name":"accessorPositions"},{"bufferView":1,"byteOffset":1750668,"componentType":5126,"count":2057,"type":"VEC3","name":"accessorNormals"},{"bufferView":2,"byteOffset":575328,"componentType":5126,"count":2057,"type":"VEC2","name":"accessorUVs"}],"bufferViews":[{"buffer":0,"byteLength":837504,"name":"bufferViewScalar"},{"buffer":0,"byteOffset":837504,"byteLength":1775352,"byteStride":12,"name":"bufferViewFloatVec3"},{"buffer":0,"byteOffset":2612856,"byteLength":591784,"byteStride":8,"name":"bufferViewFloatVec2"}],"buffers":[{"uri":"dr.pepper model.bin","byteLength":3204640}],"materials":[{"pbrMetallicRoughness":{"baseColorFactor":[1.0,0.0,0.0,1.0],"metallicFactor":0.0,"roughnessFactor":0.450053632},"name":"09 - Default"},{"pbrMetallicRoughness":{"baseColorTexture":{"index":0},"metallicFactor":0.0,"roughnessFactor":0.450053632},"name":"Material #25"},{"pbrMetallicRoughness":{"baseColorFactor":[0.121568628,0.3254902,0.09803922,1.0],"metallicFactor":0.0,"roughnessFactor":0.420000017},"doubleSided":true,"name":"cap ","extras":{"babylonSeparateCullingPass":false}}],"textures":[{"sampler":0,"source":0,"name":"dr_pepper_texture.jpg"}],"images":[{"uri":"dr_pepper_texture.jpg"}],"samplers":[{"magFilter":9729,"minFilter":9987}]}