{"accessors":[{"bufferView":0,"componentType":5123,"count":351360,"max":[44341],"min":[0],"type":"SCALAR"},{"bufferView":1,"componentType":5126,"count":44342,"max":[71.3720932006836,1249.2227783203125,511.16290283203125],"min":[-662.7680053710938,-33.015438079833984,-76.38243103027344],"type":"VEC3"},{"bufferView":2,"componentType":5126,"count":44342,"max":[0.999953031539917,0.9998077750205994,0.9999822378158569],"min":[-0.999989926815033,-0.9997500777244568,-0.9999587535858154],"type":"VEC3"},{"bufferView":3,"componentType":5126,"count":44342,"max":[0.6170300841331482,1.0],"min":[0.0,0.0],"type":"VEC2"},{"bufferView":4,"componentType":5123,"count":11520,"max":[1615],"min":[0],"type":"SCALAR"},{"bufferView":5,"componentType":5126,"count":1616,"max":[26.12537956237793,571.2512817382812,327.1665954589844],"min":[-386.9806823730469,84.17453002929688,-65.19474792480469],"type":"VEC3"},{"bufferView":6,"componentType":5126,"count":1616,"max":[0.9974681735038757,0.946449875831604,0.999957263469696],"min":[-0.9975913166999817,-0.9442901015281677,-0.9998902678489685],"type":"VEC3"},{"bufferView":7,"componentType":5126,"count":1616,"max":[1.009225845336914,0.9924715757369995],"min":[-0.12419256567955017,0.06484115123748779],"type":"VEC2"},{"bufferView":8,"componentType":5123,"count":156672,"max":[18597],"min":[0],"type":"SCALAR"},{"bufferView":9,"componentType":5126,"count":18598,"max":[83.3664779663086,55.023521423339844,93.11005401611328],"min":[-91.35675811767578,-52.93230438232422,-85.4553451538086],"type":"VEC3"},{"bufferView":10,"componentType":5126,"count":18598,"max":[0.9998551607131958,0.999918520450592,0.9999821782112122],"min":[-0.9998546838760376,-0.9999390840530396,-0.9998067021369934],"type":"VEC3"},{"bufferView":11,"componentType":5126,"count":18598,"max":[0.9951000213623047,-0.0048999786376953125],"min":[0.004900000058114529,-0.9802000522613525],"type":"VEC2"}],"asset":{"generator":"Verge3D for Blender","version":"2.0"},"bufferViews":[{"buffer":0,"byteLength":702720,"byteOffset":0,"target":34963},{"buffer":0,"byteLength":532104,"byteOffset":702720,"target":34962},{"buffer":0,"byteLength":532104,"byteOffset":1234824,"target":34962},{"buffer":0,"byteLength":354736,"byteOffset":1766928,"target":34962},{"buffer":0,"byteLength":23040,"byteOffset":2121664,"target":34963},{"buffer":0,"byteLength":19392,"byteOffset":2144704,"target":34962},{"buffer":0,"byteLength":19392,"byteOffset":2164096,"target":34962},{"buffer":0,"byteLength":12928,"byteOffset":2183488,"target":34962},{"buffer":0,"byteLength":313344,"byteOffset":2196416,"target":34963},{"buffer":0,"byteLength":223176,"byteOffset":2509760,"target":34962},{"buffer":0,"byteLength":223176,"byteOffset":2732936,"target":34962},{"buffer":0,"byteLength":148784,"byteOffset":2956112,"target":34962}],"buffers":[{"byteLength":3104896,"uri":"sprite line.bin"}],"cameras":[{"extensions":{"S8S_v3d_camera":{"controls":"ORBIT","enablePan":true,"moveSpeed":1.0,"orbitMaxDistance":100.0,"orbitMaxPolarAngle":3.1415927410125732,"orbitMaxZoom":100.0,"orbitMinDistance":0.0,"orbitMinPolarAngle":0.0,"orbitMinZoom":0.009999999776482582,"orbitTarget":[0.0,0.0,-0.0],"rotateSpeed":1.0,"viewportFitInitialAspect":1.7777777777777777,"viewportFitType":"AUTO"}},"name":"摄像机","perspective":{"aspectRatio":1.7777777777777777,"yfov":0.281028729512983,"zfar":1000.0,"znear":0.10000000149011612},"type":"perspective"}],"extensions":{"S8S_v3d_lights":{"lights":[{"color":[1.0,0.9837890267372131,0.649111270904541],"intensity":2.1500000953674316,"name":"日光.001","profile":"blender","shadow":{"bias":-0.0018,"cameraFar":100,"cameraFov":0,"cameraNear":0.1,"csm":{"maxDistance":200.0},"enabled":true,"expBias":2.5,"mapSize":1024,"radius":1.0,"slopeScaledBias":2.5},"type":"directional"},{"angle":0.43059754371643066,"color":[1.0,1.0,1.0],"decay":2,"distance":3.162277695509587,"intensity":10.0,"name":"聚光","penumbra":0.15000000596046448,"profile":"blender","shadow":{"bias":-0.0018,"cameraFar":3.162277695509587,"cameraFov":0.8611950874328613,"cameraNear":0.05000000074505806,"enabled":true,"expBias":2.5,"mapSize":512,"radius":1.0,"slopeScaledBias":2.5},"type":"spot"}]}},"extensionsUsed":["S8S_v3d_texture","S8S_v3d_materials","S8S_v3d_camera","S8S_v3d_lights","S8S_v3d_mesh","S8S_v3d_node","S8S_v3d_scene"],"images":[{"uri":"5738985d0356622d59df4dae14313cb.png"}],"materials":[{"extensions":{"S8S_v3d_materials":{"gtaoVisible":true,"materialIndex":0,"nodeGraph":{"edges":[{"fromNode":0,"fromOutput":0,"toInput":0,"toNode":1},{"fromNode":1,"fromOutput":0,"toInput":1,"toNode":4},{"fromNode":2,"fromOutput":0,"toInput":2,"toNode":4},{"fromNode":4,"fromOutput":0,"toInput":0,"toNode":3},{"fromNode":0,"fromOutput":1,"toInput":21,"toNode":1}],"nodes":[{"inputs":[[0.0,0.0,0.0]],"is_active_output":false,"name":"图像纹理","outputs":[[0.0,0.0,0.0,0.0],0.0],"projection":"FLAT","projectionBlend":0.0,"type":"TEX_IMAGE_NONE_BL"},{"inputs":[[0.800000011920929,0.800000011920929,0.800000011920929,1.0],0.0,[1.0,0.20000000298023224,0.10000000149011612],[0.800000011920929,0.800000011920929,0.800000011920929,1.0],1.0099999904632568,0.0,0.0,0.0,0.0,0.0,0.0,0.0,0.0,0.0,0.0,0.029999999329447746,1.4500000476837158,0.0,0.0,[0.0,0.0,0.0,1.0],1.0,1.0,[0.0,0.0,0.0],[0.0,0.0,0.0],[0.0,0.0,0.0]],"is_active_output":false,"name":"Principled BSDF","outputs":[[0,0,0,0]],"type":"BSDF_PRINCIPLED_BL"},{"inputs":[[0.09530749171972275,0.6795427799224854,0.07036010175943375,1.0],0.0,1.4500000476837158,[0.0,0.0,0.0]],"is_active_output":false,"name":"玻璃 BSDF","outputs":[[0,0,0,0]],"type":"BSDF_GLASS_BL"},{"inputs":[[0,0,0,0],[0,0,0,0],[0.0,0.0,0.0],0.0],"is_active_output":true,"name":"Material Output","outputs":[],"type":"OUTPUT_MATERIAL_BL"},{"inputs":[0.5,[0,0,0,0],[0,0,0,0]],"is_active_output":false,"name":"混合着色器","outputs":[[0,0,0,0]],"type":"MIX_SHADER_BL"}]},"useCastShadows":true}},"name":"材质"},{"extensions":{"S8S_v3d_materials":{"gtaoVisible":true,"materialIndex":0,"nodeGraph":{"edges":[{"fromNode":1,"fromOutput":0,"toInput":0,"toNode":0}],"nodes":[{"inputs":[[0,0,0,0],[0,0,0,0],[0.0,0.0,0.0],0.0],"is_active_output":true,"name":"Material Output","outputs":[],"type":"OUTPUT_MATERIAL_BL"},{"inputs":[[0.0388273149728775,0.9153584241867065,0.06045163795351982,1.0],0.0,1.4500000476837158,[0.0,0.0,0.0]],"is_active_output":false,"name":"玻璃 BSDF","outputs":[[0,0,0,0]],"type":"BSDF_GLASS_BL"}]},"useCastShadows":true}},"name":"材质.002"},{"extensions":{"S8S_v3d_materials":{"gtaoVisible":true,"materialIndex":0,"nodeGraph":{"edges":[{"fromNode":0,"fromOutput":0,"toInput":0,"toNode":1}],"nodes":[{"inputs":[[0.006512091960757971,0.14995980262756348,0.005605391692370176,1.0],0.0,[1.0,0.20000000298023224,0.10000000149011612],[0.800000011920929,0.800000011920929,0.800000011920929,1.0],1.399999976158142,0.0,1.0,0.5,0.0,0.2818181812763214,0.0,0.0,0.0,0.44090908765792847,0.0,0.029999999329447746,1.4500000476837158,0.0,0.0,[0.0,0.0,0.0,1.0],1.0,1.0,[0.0,0.0,0.0],[0.0,0.0,0.0],[0.0,0.0,0.0]],"is_active_output":false,"name":"Principled BSDF","outputs":[[0,0,0,0]],"type":"BSDF_PRINCIPLED_BL"},{"inputs":[[0,0,0,0],[0,0,0,0],[0.0,0.0,0.0],0.0],"is_active_output":true,"name":"Material Output","outputs":[],"type":"OUTPUT_MATERIAL_BL"}]},"useCastShadows":true}},"name":"材质.003"},{"alphaMode":"BLEND","doubleSided":true,"extensions":{"S8S_v3d_materials":{"depthWrite":false,"gtaoVisible":false,"materialIndex":0,"nodeGraph":{"edges":[{"fromNode":1,"fromOutput":0,"toInput":0,"toNode":0}],"nodes":[{"inputs":[[0,0,0,0],[0,0,0,0],[0.0,0.0,0.0],0.0],"is_active_output":true,"name":"Material Output","outputs":[],"type":"OUTPUT_MATERIAL_BL"},{"inputs":[[0.06835173070430756,0.7165853381156921,0.08054997771978378,1.0],0.0,[1.0,0.20000000298023224,0.10000000149011612],[0.800000011920929,0.800000011920929,0.800000011920929,1.0],1.399999976158142,0.0,0.0,0.5409091114997864,0.0,0.0,0.0,0.0,0.0,0.5,0.0,0.029999999329447746,1.4500000476837158,1.0,0.0,[0.0,0.0,0.0,1.0],1.0,1.0,[0.0,0.0,0.0],[0.0,0.0,0.0],[0.0,0.0,0.0]],"is_active_output":false,"name":"Principled BSDF","outputs":[[0,0,0,0]],"type":"BSDF_PRINCIPLED_BL"},{"inputs":[[0.0,0.0,0.0]],"is_active_output":false,"name":"图像纹理","outputs":[[0.0,0.0,0.0,0.0],0.0],"projection":"FLAT","projectionBlend":0.0,"type":"TEX_IMAGE_NONE_BL"}]},"renderSide":"DOUBLE","useCastShadows":true}},"name":"材质.004"},{"alphaMode":"BLEND","doubleSided":true,"extensions":{"S8S_v3d_materials":{"depthWrite":false,"gtaoVisible":false,"materialIndex":0,"nodeGraph":{"edges":[{"fromNode":1,"fromOutput":0,"toInput":0,"toNode":0},{"fromNode":2,"fromOutput":0,"toInput":0,"toNode":1},{"fromNode":2,"fromOutput":1,"toInput":21,"toNode":1}],"nodes":[{"inputs":[[0,0,0,0],[0,0,0,0],[0.0,0.0,0.0],0.0],"is_active_output":true,"name":"Material Output","outputs":[],"type":"OUTPUT_MATERIAL_BL"},{"inputs":[[0.06835173070430756,0.7165853381156921,0.08054997771978378,1.0],0.0,[1.0,0.20000000298023224,0.10000000149011612],[0.800000011920929,0.800000011920929,0.800000011920929,1.0],1.399999976158142,0.0,0.0,0.5,0.0,0.0,0.0,0.0,0.0,0.5,0.0,0.029999999329447746,1.4500000476837158,1.0,0.0,[0.0,0.0,0.0,1.0],1.0,1.0,[0.0,0.0,0.0],[0.0,0.0,0.0],[0.0,0.0,0.0]],"is_active_output":false,"name":"Principled BSDF","outputs":[[0,0,0,0]],"type":"BSDF_PRINCIPLED_BL"},{"alphaMode":"STRAIGHT","inputs":[[0.0,0.0,0.0]],"is_active_output":false,"name":"图像纹理","outputs":[[0.0,0.0,0.0,0.0],0.0],"projection":"FLAT","projectionBlend":0.0,"texture":0,"type":"TEX_IMAGE_BL"}]},"renderSide":"DOUBLE","useCastShadows":true}},"name":"材质.007"},{"extensions":{"S8S_v3d_materials":{"dithering":true,"gtaoVisible":true,"materialIndex":0,"nodeGraph":{"edges":[{"fromNode":0,"fromOutput":0,"toInput":0,"toNode":1}],"nodes":[{"inputs":[[0.05000000074505806,0.05000000074505806,0.05000000074505806,1.0],1.0],"is_active_output":false,"name":"背景","outputs":[[0,0,0,0]],"type":"BACKGROUND_BL"},{"inputs":[[0,0,0,0],[0,0,0,0]],"is_active_output":true,"name":"世界输出","outputs":[],"type":"OUTPUT_WORLD_BL"}]},"useCastShadows":true}},"name":"Verge3D_Environment_世界"}],"meshes":[{"extensions":{"S8S_v3d_mesh":{"colorLayers":{},"uvLayers":{"UVMap":"TEXCOORD_0"}}},"name":"Obj3d66_7794032_4_94","primitives":[{"attributes":{"NORMAL":2,"POSITION":1,"TEXCOORD_0":3},"indices":0,"material":3,"mode":4},{"attributes":{"NORMAL":6,"POSITION":5,"TEXCOORD_0":7},"indices":4,"material":4,"mode":4}]},{"extensions":{"S8S_v3d_mesh":{"colorLayers":{},"uvLayers":{"UVMap":"TEXCOORD_0"}}},"name":"Obj3d66_7794032_4_94.001","primitives":[{"attributes":{"NORMAL":10,"POSITION":9,"TEXCOORD_0":11},"indices":8,"material":2,"mode":4}]}],"nodes":[{"extensions":{"S8S_v3d_lights":{"light":0},"S8S_v3d_node":{"frustumCulling":true,"groupNames":["Collection"],"hidden":false,"hidpiCompositing":false,"objectColor":[1.0,1.0,1.0,1.0],"objectIndex":0,"renderOrder":0}},"name":"日光","rotation":[-0.7071067690849304,0.0,0.0,0.7071067690849304],"scale":[1.0,0.9999999403953552,0.9999999403953552],"translation":[0.0,12.370094299316406,-4.357148170471191]},{"extensions":{"S8S_v3d_node":{"frustumCulling":true,"groupNames":["Collection"],"hidden":false,"hidpiCompositing":false,"objectColor":[1.0,1.0,1.0,1.0],"objectIndex":0,"renderOrder":0,"useShadows":true}},"mesh":0,"name":"Obj3d66_7794032_4_94","rotation":[0.01962246373295784,-0.12201642990112305,0.9734145998954773,0.19284935295581818],"scale":[0.0010000000474974513,0.0010000000474974513,0.0010000000474974513],"translation":[-0.0006982516497373581,0.6857836842536926,0.00304582342505455]},{"extensions":{"S8S_v3d_node":{"frustumCulling":true,"groupNames":["Collection"],"hidden":false,"hidpiCompositing":false,"objectColor":[1.0,1.0,1.0,1.0],"objectIndex":0,"renderOrder":0,"useShadows":true}},"mesh":1,"name":"Obj3d66_7794032_4_94.001","rotation":[0.01962246373295784,-0.12201642990112305,0.9734145998954773,0.19284935295581818],"scale":[0.0010000000474974513,0.0010000000474974513,0.0010000000474974513],"translation":[-0.0006982516497373581,0.6857836842536926,0.00304582342505455]},{"camera":0,"extensions":{"S8S_v3d_node":{"frustumCulling":true,"groupNames":["Collection"],"hidden":false,"hidpiCompositing":false,"objectColor":[1.0,1.0,1.0,1.0],"objectIndex":0,"renderOrder":0}},"name":"摄像机","rotation":[-0.31345245242118835,-0.1838788241147995,0.00829237885773182,0.9315940141677856],"scale":[0.9999998807907104,0.9999998807907104,0.9999998807907104],"translation":[-1.7413982152938843,6.145129680633545,4.469278335571289]},{"extensions":{"S8S_v3d_lights":{"light":1},"S8S_v3d_node":{"frustumCulling":true,"groupNames":["Collection"],"hidden":false,"hidpiCompositing":false,"objectColor":[1.0,1.0,1.0,1.0],"objectIndex":0,"renderOrder":0}},"name":"聚光","rotation":[-0.6552377343177795,0.26582595705986023,-0.26582595705986023,0.6552377939224243],"scale":[1.0,0.9999999403953552,0.9999998807907104],"translation":[5.338462829589844,6.072667121887207,0.0]}],"samplers":[{}],"scene":0,"scenes":[{"extensions":{"S8S_v3d_scene":{"aaMethod":"AUTO","iblEnvironmentMode":"PMREM","physicallyCorrectLights":true,"pmremMaxTileSize":512,"shadowMap":{"esmDistanceScale":1.0,"renderReverseSided":false,"renderSingleSided":true,"type":"PCFPOISSON"},"toneMapping":{"type":"filmicBlender"},"worldMaterial":5}},"extras":{"animFrameRate":24,"coordSystem":"Z_UP_RIGHT"},"name":"Scene","nodes":[1,2,3,0,4]}],"textures":[{"extensions":{"S8S_v3d_texture":{"colorSpace":"srgb"}},"name":"5738985d0356622d59df4dae14313cb.png","sampler":0,"source":0}]}
